<svg width="34" height="34" viewBox="0 0 34 34" fill="none" xmlns="http://www.w3.org/2000/svg">
<path d="M7.04916 10.3586C8.73155 10.3586 10.0954 8.99473 10.0954 7.31235C10.0954 5.62996 8.73155 4.26611 7.04916 4.26611C5.36677 4.26611 4.00293 5.62996 4.00293 7.31235C4.00293 8.99473 5.36677 10.3586 7.04916 10.3586Z" fill="black"/>
<path d="M12.9728 12.6669V29.5674H18.2202V21.2098C18.2202 19.0044 18.6351 16.8687 21.3694 16.8687C24.0662 16.8687 24.0996 19.3901 24.0996 21.349V29.5688H29.3498V20.3006C29.3498 15.748 28.3696 12.2493 23.0485 12.2493C20.4937 12.2493 18.7812 13.6513 18.0809 14.9781H18.0099V12.6669H12.9728ZM4.42163 12.6669H9.67736V29.5674H4.42163V12.6669Z" fill="black"/>
</svg>
