<svg width="34" height="34" viewBox="0 0 34 34" fill="none" xmlns="http://www.w3.org/2000/svg">
<path d="M17.2922 10.6091C15.5848 10.6091 13.9474 11.2874 12.7401 12.4947C11.5328 13.702 10.8545 15.3395 10.8545 17.0469C10.8545 18.7543 11.5328 20.3917 12.7401 21.599C13.9474 22.8064 15.5848 23.4846 17.2922 23.4846C18.9996 23.4846 20.6371 22.8064 21.8444 21.599C23.0517 20.3917 23.73 18.7543 23.73 17.0469C23.73 15.3395 23.0517 13.702 21.8444 12.4947C20.6371 11.2874 18.9996 10.6091 17.2922 10.6091ZM17.2922 21.2278C16.183 21.2278 15.1192 20.7872 14.3349 20.0028C13.5506 19.2185 13.1099 18.1547 13.1099 17.0455C13.1099 15.9363 13.5506 14.8725 14.3349 14.0881C15.1192 13.3038 16.183 12.8632 17.2922 12.8632C18.4014 12.8632 19.4652 13.3038 20.2496 14.0881C21.0339 14.8725 21.4745 15.9363 21.4745 17.0455C21.4745 18.1547 21.0339 19.2185 20.2496 20.0028C19.4652 20.7872 18.4014 21.2278 17.2922 21.2278Z" fill="black"/>
<path d="M23.9847 11.873C24.8136 11.873 25.4856 11.2011 25.4856 10.3722C25.4856 9.54329 24.8136 8.87134 23.9847 8.87134C23.1558 8.87134 22.4839 9.54329 22.4839 10.3722C22.4839 11.2011 23.1558 11.873 23.9847 11.873Z" fill="black"/>
<path d="M29.1736 8.84629C28.8513 8.01398 28.3587 7.25813 27.7275 6.62713C27.0962 5.99613 26.3402 5.50388 25.5078 5.1819C24.5337 4.81623 23.5046 4.61851 22.4643 4.59715C21.1236 4.53868 20.699 4.52197 17.2991 4.52197C13.8992 4.52197 13.4635 4.52197 12.1339 4.59715C11.0944 4.61742 10.0661 4.81518 9.09321 5.1819C8.26056 5.50351 7.50433 5.99562 6.87305 6.62667C6.24176 7.25772 5.74936 8.01376 5.42743 8.84629C5.06169 9.82032 4.86443 10.8495 4.84408 11.8897C4.78421 13.2291 4.76611 13.6537 4.76611 17.055C4.76611 20.4548 4.76611 20.8878 4.84408 22.2202C4.86496 23.2616 5.06127 24.2891 5.42743 25.265C5.75026 26.0973 6.24314 26.853 6.87458 27.484C7.50602 28.1149 8.26213 28.6072 9.0946 28.9294C10.0656 29.3098 11.0944 29.5217 12.1367 29.5559C13.4774 29.6144 13.902 29.6325 17.3019 29.6325C20.7017 29.6325 21.1375 29.6325 22.4671 29.5559C23.5073 29.5348 24.5363 29.3375 25.5106 28.9726C26.3428 28.6498 27.0986 28.1572 27.7298 27.526C28.3609 26.8948 28.8536 26.139 29.1763 25.3068C29.5425 24.3322 29.7388 23.3048 29.7597 22.2634C29.8196 20.924 29.8377 20.4994 29.8377 17.0981C29.8377 13.6969 29.8377 13.2653 29.7597 11.9329C29.7435 10.878 29.5452 9.83373 29.1736 8.84629ZM27.4778 22.1172C27.4688 22.9195 27.3224 23.7144 27.0448 24.4673C26.8357 25.0087 26.5157 25.5003 26.1052 25.9106C25.6946 26.3209 25.2028 26.6406 24.6613 26.8494C23.9168 27.1257 23.1303 27.2722 22.3362 27.2824C21.0136 27.3437 20.6405 27.359 17.249 27.359C13.8547 27.359 13.508 27.359 12.1603 27.2824C11.3666 27.2727 10.5806 27.1262 9.83667 26.8494C9.29326 26.6419 8.79945 26.3227 8.38719 25.9124C7.97493 25.502 7.6534 25.0097 7.4434 24.4673C7.16975 23.7225 7.02338 22.937 7.01041 22.1436C6.95055 20.821 6.93662 20.4479 6.93662 17.0564C6.93662 13.6635 6.93662 13.3168 7.01041 11.9677C7.01941 11.1658 7.16586 10.3714 7.4434 9.61898C7.86804 8.5205 8.73819 7.65592 9.83667 7.23546C10.5809 6.95999 11.3668 6.81356 12.1603 6.80247C13.4844 6.7426 13.8561 6.7259 17.249 6.7259C20.6419 6.7259 20.9899 6.7259 22.3362 6.80247C23.1304 6.81202 23.9169 6.9585 24.6613 7.23546C25.2028 7.44468 25.6945 7.76479 26.105 8.17527C26.5155 8.58574 26.8356 9.0775 27.0448 9.61898C27.3185 10.3638 27.4648 11.1493 27.4778 11.9426C27.5377 13.2667 27.553 13.6384 27.553 17.0313C27.553 20.4228 27.553 20.7876 27.4931 22.1186H27.4778V22.1172Z" fill="black"/>
</svg>
